Coordinates
version=1
nRows=19
nColumns=34
inDegrees=yes

Units are S.I. units (second, meters, Newtons, ...)
If the header above contains a line with 'inDegrees', this indicates whether rotational values are in degrees (yes) or radians (no).

endheader
time	pelvis_tilt	pelvis_list	pelvis_rotation	pelvis_tx	pelvis_ty	pelvis_tz	hip_flexion_r	hip_adduction_r	hip_rotation_r	knee_angle_r	ankle_angle_r	subtalar_angle_r	mtp_angle_r	hip_flexion_l	hip_adduction_l	hip_rotation_l	knee_angle_l	ankle_angle_l	subtalar_angle_l	mtp_angle_l	lumbar_extension	lumbar_bending	lumbar_rotation	arm_flex_r	arm_add_r	arm_rot_r	elbow_flex_r	pro_sup_r	arm_flex_l	arm_add_l	arm_rot_l	elbow_flex_l	pro_sup_l
     22.26666670	     -0.84318907	      6.93093361	   -180.42618389	      0.06234265	      1.04731135	      0.14494316	     -5.34152573	      8.43159205	      0.68290542	    104.28250855	    -17.66557121	    -33.22158454	      0.00000000	     31.04705726	     -4.69133405	     -7.27607152	     16.49346236	    -16.98453548	      9.25157238	      0.00000000	    -18.85326872	      3.67048944	     18.49165739	     -2.04098999	    -31.24378683	     10.51256646	    108.12964334	     93.13180168	    -20.45244735	    -24.35052632	    -11.80075001	     96.33565576	     86.51249528
     22.27500000	     -0.87793319	      6.01164881	   -179.66411718	      0.06398808	      1.04155101	      0.14432475	     -2.53328633	      7.16496462	     -0.25862053	    108.90475605	    -16.97378443	    -31.48723581	      0.00000000	     30.17519064	     -3.38202034	     -6.78478613	     19.43945717	    -14.71513993	      7.11109250	      0.00000000	    -19.29337912	      2.07615380	     16.26165301	     -2.54850843	    -29.92507926	      9.95371289	    104.30086032	     92.81822767	    -17.01568868	    -25.31106785	    -10.81793105	     95.62969032	     86.30897252
     22.28333330	     -0.85084975	      4.85777235	   -178.82513696	      0.06554739	      1.03543093	      0.14380724	      0.51761506	      5.69691419	     -0.86592724	    113.27091588	    -16.19786278	    -29.39545784	      0.00000000	     29.36425205	     -1.77968705	     -6.26105072	     22.94380678	    -11.53882497	      4.44961340	      0.00000000	    -19.66192849	      0.30429887	     13.84020151	     -3.26952137	    -28.45182565	      9.61923044	    100.64424339	     92.44675324	    -13.35743080	    -26.57739437	     -9.25107242	     94.66002859	     85.94071849
     22.29166670	     -1.01844837	      3.58838416	   -177.72736423	      0.06714413	      1.02873789	      0.14359378	      3.52181811	      4.05083421	     -1.47328528	    117.34316013	    -15.20470457	    -27.01121446	      0.00000000	     28.33504628	      0.09689734	     -5.40692808	     26.70323132	     -7.98760119	      1.43978920	      0.00000000	    -20.28925688	     -1.47453223	     10.98811709	     -3.96538301	    -26.89894272	      9.27608672	     96.86047331	     92.13330648	     -9.71442772	    -27.98164064	     -7.79883654	     94.01710878	     85.55044434
     22.30000000	     -1.20700508	      2.32191662	   -176.58102093	      0.06937142	      1.02278995	      0.14390651	      6.61938414	      2.37715011	     -1.90958910	    121.01196560	    -13.75802860	    -24.19223092	      0.00000000	     27.20980360	      1.98983864	     -4.57261992	     30.40218422	     -4.33728879	     -1.59309863	      0.00000000	    -21.07021213	     -3.12487695	      7.95529242	     -4.67329078	    -25.51376433	      9.17041272	     93.22836835	     91.80803448	     -5.97176434	    -29.43080224	     -6.08058268	     93.43925336	     85.05434967
     22.30833330	     -1.60024384	      1.18768795	   -175.41484312	      0.07247408	      1.01717447	      0.14469307	      9.59299047	      0.76636375	     -2.21466029	    124.11695144	    -12.06566856	    -21.28551591	      0.00000000	     25.79665711	      3.77056646	     -3.51632659	     33.98828492	     -0.63277058	     -4.45018850	      0.00000000	    -22.30425657	     -4.44462916	      4.53536917	     -5.07266649	    -24.07322755	      9.01497852	     89.92445888	     91.59301121	     -2.58678678	    -30.82024191	     -4.74625874	     93.45811762	     84.80473413
     22.31666670	     -1.91562817	      0.15184669	   -174.53126005	      0.07597528	      1.01208008	      0.14566898	     12.75266192	     -0.82015302	     -2.13188994	    126.67466383	     -9.91755509	    -18.25416575	      0.00000000	     24.27094485	      5.32828291	     -2.49997434	     37.08739640	      2.75193389	     -7.07748339	      0.00000000	    -23.47829636	     -5.52978779	      1.29033012	     -5.61383338	    -23.08017134	      9.17233738	     87.06598621	     91.36995231	      0.80123103	    -32.06374909	     -3.19501177	     93.55344322	     84.53488003
     22.32500000	     -2.19409096	     -0.64505630	   -173.88513675	      0.07988003	      1.00744598	      0.14672996	     16.12442947	     -2.26368996	     -1.81598876	    128.70836785	     -7.72595359	    -15.71746839	      0.00000000	     22.67464367	      6.55880233	     -1.34594515	     39.91547432	      5.78568652	     -9.20450273	      0.00000000	    -24.63660512	     -6.23773601	     -1.81023941	     -6.35350769	    -22.47518521	      9.31010404	     84.96370952	     91.12415989	      4.07751008	    -33.11681611	     -1.78943672	     93.94748471	     84.26281277
     22.33333330	     -2.38068781	     -1.17758837	   -173.48025829	      0.08376701	      1.00331325	      0.14766689	     19.75760497	     -3.43172627	     -1.38780591	    130.13742662	     -5.63561899	    -13.83418749	      0.00000000	     20.99528015	      7.39823486	     -0.16065742	     42.35156821	      8.39188689	    -10.82722030	      0.00000000	    -25.62337424	     -6.59922238	     -4.60557992	     -7.39826068	    -22.18776712	      9.35773623	     83.66899566	     90.83394406	      7.16022669	    -34.01104959	     -0.45444614	     94.67508421	     83.97206818
     22.34166670	     -2.51574046	     -1.52950691	   -173.13965457	      0.08733807	      1.00188180	      0.14906710	     23.65407743	     -4.52013870	     -0.95954573	    130.66642466	     -4.35232303	    -13.36204087	      0.00000000	     19.00202948	      7.97792571	      0.99850238	     44.20111062	     10.57410183	    -11.75661876	      0.00000000	    -26.45913377	     -6.69076108	     -7.31236473	     -8.74138135	    -22.09115177	      9.52955601	     83.13106454	     90.67800686	      9.85006917	    -34.30436513	      0.11084431	     95.72323956	     83.81969816
     22.35000000	     -2.51993962	     -1.54252712	   -172.90922072	      0.09028834	      1.00160828	      0.15043887	     28.04994804	     -5.16780137	     -0.52623306	    130.40836600	     -2.96877558	    -13.10295652	      0.00000000	     16.75896309	      8.03167414	      1.85094926	     45.41737493	     12.25090566	    -12.24536348	      0.00000000	    -27.04103989	     -6.48013171	     -9.48157588	    -10.63846811	    -22.24504724	      8.94125038	     83.41349767	     90.26405521	     12.56370543	    -35.24698201	      1.89488365	     97.36553476	     83.51140106
     22.35833330	     -2.84909959	     -1.42955684	   -172.75678621	      0.09301111	      1.00375221	      0.15187615	     32.07890411	     -5.68913699	     -0.42031171	    129.07401059	     -2.93390710	    -14.84238652	      0.00000000	     13.68245766	      7.66396843	      2.21332603	     45.78760867	     13.44641232	    -12.01290769	      0.00000000	    -27.87157641	     -6.01036744	    -10.09719902	    -14.38452064	    -21.76078941	      5.99432051	     85.27232156	     89.10549344	     17.03766368	    -34.68010117	      4.95099262	     97.76748886	     82.29522618
     22.36666670	     -2.56779363	     -0.77194191	   -172.60503496	      0.09474288	      1.00632623	      0.15333135	     36.48074921	     -5.70420400	     -0.84036436	    126.71320643	     -3.11690809	    -17.05261727	      0.00000000	     10.94611880	      6.67033388	      2.34916336	     45.57428103	     13.90367131	    -11.65529560	      0.00000000	    -27.63932007	     -5.20887339	    -11.86555617	    -16.19391747	    -22.19219207	      6.08572319	     85.89431959	     89.08892176	     18.73681703	    -34.47429021	      5.68112178	    100.01829102	     82.19836916
     22.37500000	     -2.26243228	      0.10269141	   -172.62484305	      0.09599458	      1.01024361	      0.15440852	     40.28461671	     -5.39899990	     -1.56328303	    123.17095304	     -3.30182163	    -19.72237187	      0.00000000	      7.97073131	      5.14913725	      1.79270855	     44.76074497	     13.72210865	    -10.56976948	      0.00000000	    -27.31950644	     -4.17001575	    -13.29747951	    -18.20297357	    -22.44711932	      5.64650526	     87.18346017	     89.09175629	     20.09313551	    -33.95072002	      6.07294928	    102.77265776	     82.15516339
     22.38333330	     -1.74622537	      1.09569359	   -172.64419781	      0.09629052	      1.01438816	      0.15500382	     43.56498127	     -4.90131903	     -2.56244286	    119.06342242	     -3.16541549	    -22.56186771	      0.00000000	      5.04548599	      3.36628738	      0.98908141	     43.36387564	     12.72792952	     -9.23700377	      0.00000000	    -26.56960663	     -3.00420867	    -14.54402684	    -20.35389126	    -22.59349885	      5.04344827	     88.72333525	     89.19098390	     21.12397507	    -33.12332981	      6.34461985	    105.81749082	     82.21129250
     22.39166670	     -1.09764745	      2.07879893	   -172.62132945	      0.09495772	      1.01841400	      0.15533379	     46.36441236	     -4.23863327	     -3.70315389	    114.53482354	     -2.13591858	    -24.99067058	      0.00000000	      2.04157922	      1.50509953	      0.04592964	     41.49223688	     10.76300151	     -7.96159142	      0.00000000	    -25.22327537	     -1.98171816	    -15.72101292	    -22.44969007	    -22.81513325	      4.91070819	     89.74298444	     89.30898772	     21.73154663	    -32.07386380	      6.90820461	    108.76915374	     82.33415148
     22.40000000	     -0.56241101	      2.84550819	   -172.45703971	      0.09223833	      1.02308101	      0.15553417	     48.27883530	     -3.61823107	     -4.89773855	    109.49127341	     -1.55275797	    -27.90326521	      0.00000000	     -1.18325252	     -0.18270057	     -0.86314083	     39.14020989	      7.86387019	     -6.07016041	      0.00000000	    -23.86941313	     -1.02720623	    -17.19997707	    -24.72358083	    -22.77671414	      4.44369173	     91.42906844	     89.47666644	     22.20760850	    -31.17647801	      7.51550512	    111.54368446	     82.52015820
     22.40833330	     -0.23900454	      3.25321529	   -172.12801849	      0.08897525	      1.02901506	      0.15591925	     49.24672926	     -3.22385280	     -5.83977052	    104.07372387	     -2.25589799	    -31.34311495	      0.00000000	     -4.72293117	     -1.50780851	     -1.61508339	     36.23097137	      4.10098850	     -3.67372494	      0.00000000	    -22.66194597	     -0.17766412	    -18.80581704	    -27.13828402	    -22.25198933	      3.34728711	     93.24292962	     90.01409401	     24.73841397	    -29.41754633	      8.78221319	    110.99447892	     82.81631324
     22.41666670	      0.06516999	      3.58980695	   -172.03472019	      0.08443973	      1.03534036	      0.15662046	     50.07024623	     -2.72124133	     -6.54646849	     98.49410573	     -1.67431974	    -32.98687766	      0.00000000	     -8.37963791	     -2.58817850	     -2.29084713	     33.02590512	     -0.34371670	     -1.55702340	      0.00000000	    -21.15398739	      0.38410556	    -19.48589535	    -29.96522957	    -21.37367915	      1.30684899	     94.64552665	     90.87042764	     26.92447829	    -27.64589525	     11.36586297	    109.18688921	     83.00453833
